<mxfile host="Electron" modified="2024-03-17T01:43:31.525Z" agent="Mozilla/5.0 (Macintosh; Intel Mac OS X 10_15_7) AppleWebKit/537.36 (KHTML, like Gecko) draw.io/24.0.4 Chrome/120.0.6099.109 Electron/28.1.0 Safari/537.36" etag="BGGuwHGvQ3SHS-nM07pI" version="24.0.4" type="device">
  <diagram name="Page-1" id="GnXNXVfusdSH52J-T9fP">
    <mxGraphModel dx="700" dy="622" grid="1" gridSize="10" guides="1" tooltips="1" connect="1" arrows="1" fold="1" page="1" pageScale="1" pageWidth="827" pageHeight="1169" math="0" shadow="0">
      <root>
        <mxCell id="0" />
        <mxCell id="1" parent="0" />
        <mxCell id="89rGj8NbQxNIjhzvzKC2-15" value="Bitcoin network" style="ellipse;whiteSpace=wrap;html=1;aspect=fixed;dashed=1;dashPattern=8 8;fillColor=none;" parent="1" vertex="1">
          <mxGeometry x="430" y="140" width="220" height="220" as="geometry" />
        </mxCell>
        <mxCell id="89rGj8NbQxNIjhzvzKC2-19" value="" style="rounded=0;whiteSpace=wrap;html=1;dashed=1;fillColor=none;" parent="1" vertex="1">
          <mxGeometry x="230" y="70" width="250" height="370" as="geometry" />
        </mxCell>
        <mxCell id="89rGj8NbQxNIjhzvzKC2-23" value="" style="edgeStyle=orthogonalEdgeStyle;rounded=0;orthogonalLoop=1;jettySize=auto;html=1;entryX=0;entryY=0.5;entryDx=0;entryDy=0;" parent="1" source="89rGj8NbQxNIjhzvzKC2-4" target="89rGj8NbQxNIjhzvzKC2-11" edge="1">
          <mxGeometry relative="1" as="geometry">
            <Array as="points">
              <mxPoint x="200" y="200" />
              <mxPoint x="200" y="275" />
            </Array>
          </mxGeometry>
        </mxCell>
        <mxCell id="89rGj8NbQxNIjhzvzKC2-4" value="Alice" style="shape=umlActor;verticalLabelPosition=bottom;verticalAlign=top;html=1;outlineConnect=0;" parent="1" vertex="1">
          <mxGeometry x="150" y="170" width="30" height="60" as="geometry" />
        </mxCell>
        <mxCell id="89rGj8NbQxNIjhzvzKC2-24" value="" style="edgeStyle=orthogonalEdgeStyle;rounded=0;orthogonalLoop=1;jettySize=auto;html=1;" parent="1" source="89rGj8NbQxNIjhzvzKC2-6" target="89rGj8NbQxNIjhzvzKC2-11" edge="1">
          <mxGeometry relative="1" as="geometry">
            <Array as="points">
              <mxPoint x="200" y="350" />
              <mxPoint x="200" y="275" />
            </Array>
          </mxGeometry>
        </mxCell>
        <mxCell id="89rGj8NbQxNIjhzvzKC2-6" value="Bob" style="shape=umlActor;verticalLabelPosition=bottom;verticalAlign=top;html=1;outlineConnect=0;" parent="1" vertex="1">
          <mxGeometry x="150" y="320" width="30" height="60" as="geometry" />
        </mxCell>
        <mxCell id="89rGj8NbQxNIjhzvzKC2-7" value="Node 1" style="shape=cube;whiteSpace=wrap;html=1;boundedLbl=1;backgroundOutline=1;darkOpacity=0.05;darkOpacity2=0.1;size=20;" parent="1" vertex="1">
          <mxGeometry x="390" y="240" width="80" height="70" as="geometry" />
        </mxCell>
        <mxCell id="89rGj8NbQxNIjhzvzKC2-8" value="Charlie" style="shape=umlActor;verticalLabelPosition=bottom;verticalAlign=top;html=1;outlineConnect=0;" parent="1" vertex="1">
          <mxGeometry x="280" y="345" width="30" height="60" as="geometry" />
        </mxCell>
        <mxCell id="89rGj8NbQxNIjhzvzKC2-9" value="Node 2" style="shape=cube;whiteSpace=wrap;html=1;boundedLbl=1;backgroundOutline=1;darkOpacity=0.05;darkOpacity2=0.1;size=20;" parent="1" vertex="1">
          <mxGeometry x="520" y="100" width="80" height="70" as="geometry" />
        </mxCell>
        <mxCell id="89rGj8NbQxNIjhzvzKC2-18" value="" style="edgeStyle=orthogonalEdgeStyle;rounded=0;orthogonalLoop=1;jettySize=auto;html=1;" parent="1" source="89rGj8NbQxNIjhzvzKC2-11" target="89rGj8NbQxNIjhzvzKC2-7" edge="1">
          <mxGeometry relative="1" as="geometry" />
        </mxCell>
        <mxCell id="89rGj8NbQxNIjhzvzKC2-11" value="Exchange" style="rounded=0;whiteSpace=wrap;html=1;" parent="1" vertex="1">
          <mxGeometry x="250" y="215" width="90" height="120" as="geometry" />
        </mxCell>
        <mxCell id="89rGj8NbQxNIjhzvzKC2-12" value="Node nth" style="shape=cube;whiteSpace=wrap;html=1;boundedLbl=1;backgroundOutline=1;darkOpacity=0.05;darkOpacity2=0.1;size=20;" parent="1" vertex="1">
          <mxGeometry x="540" y="340" width="80" height="70" as="geometry" />
        </mxCell>
        <mxCell id="89rGj8NbQxNIjhzvzKC2-17" value="Node 3" style="shape=cube;whiteSpace=wrap;html=1;boundedLbl=1;backgroundOutline=1;darkOpacity=0.05;darkOpacity2=0.1;size=20;" parent="1" vertex="1">
          <mxGeometry x="630" y="220" width="80" height="70" as="geometry" />
        </mxCell>
        <mxCell id="89rGj8NbQxNIjhzvzKC2-20" value="Company A" style="rounded=0;whiteSpace=wrap;html=1;strokeColor=none;" parent="1" vertex="1">
          <mxGeometry x="390" y="405" width="80" height="25" as="geometry" />
        </mxCell>
        <mxCell id="ttMj0uAYF1qrGTsrCmSA-2" value="" style="edgeStyle=orthogonalEdgeStyle;rounded=0;orthogonalLoop=1;jettySize=auto;html=1;startArrow=classic;startFill=1;" edge="1" parent="1" source="ttMj0uAYF1qrGTsrCmSA-1" target="89rGj8NbQxNIjhzvzKC2-11">
          <mxGeometry relative="1" as="geometry" />
        </mxCell>
        <mxCell id="ttMj0uAYF1qrGTsrCmSA-1" value="Bank" style="rounded=0;whiteSpace=wrap;html=1;" vertex="1" parent="1">
          <mxGeometry x="250" y="90" width="90" height="90" as="geometry" />
        </mxCell>
      </root>
    </mxGraphModel>
  </diagram>
</mxfile>
